<?xml version="1.0" encoding="utf-8"?>
<!-- Generator: Adobe Illustrator 21.0.0, SVG Export Plug-In . SVG Version: 6.00 Build 0)  -->
<svg version="1.1" id="Calque_2" xmlns="http://www.w3.org/2000/svg" xmlns:xlink="http://www.w3.org/1999/xlink" x="0px" y="0px"
	 viewBox="0 0 300 300" style="enable-background:new 0 0 300 300;" xml:space="preserve">
<style type="text/css">
	.st0{fill:#FFFFFF;}
</style>
<polygon class="st0" points="115.2,58.3 115.2,211.9 175.6,223.2 51,223.2 "/>
<polygon class="st0" points="132.4,5 132.4,199.3 266.7,233.3 "/>
<path class="st0" d="M9,270.2c0,0,18-29.4,63.8-31.1c45.7-1.7,100.3,18.4,141,15.9c56.7-3.4,77.2-19.7,77.2-19.7
	s-27.7,32.7-73.9,36.1c-46.2,3.4-81.4-6.5-102.8-10.7C92.9,256.6,39.2,246.5,9,270.2z"/>
<path class="st0" d="M31,272.2c0,0,7.1-8.5,30.6-9.7c31.7-1.7,104.1,18.3,137.9,18s48.3-4.2,60.2-13.4c0,0-24.3,27.5-62.3,27.9
	s-83-13.5-100.5-18C74.7,271.2,43.2,264.5,31,272.2z"/>
</svg>
